<svg xmlns="http://www.w3.org/2000/svg" width="19.35" height="19.35" viewBox="0 0 19.35 19.35">
    <path fill="#fff" d="M9.675 0a9.675 9.675 0 1 0 9.675 9.675A9.675 9.675 0 0 0 9.675 0zm2.014 14.994q-.747.295-1.192.449a3.144 3.144 0 0 1-1.034.155 2.06 2.06 0 0 1-1.406-.441 1.425 1.425 0 0 1-.5-1.12 4.067 4.067 0 0 1 .037-.54c.025-.183.066-.39.12-.622l.623-2.2c.055-.211.1-.412.14-.6a2.655 2.655 0 0 0 .056-.518.8.8 0 0 0-.174-.587.986.986 0 0 0-.666-.17 1.748 1.748 0 0 0-.5.074c-.168.052-.314.1-.433.144l.165-.678q.616-.24 1.175-.422a3.46 3.46 0 0 1 1.057-.179 2.022 2.022 0 0 1 1.386.434 1.442 1.442 0 0 1 .486 1.127q0 .144-.034.505a3.382 3.382 0 0 1-.124.664l-.62 2.2c-.051.176-.1.378-.137.6a3.188 3.188 0 0 0-.06.513.736.736 0 0 0 .2.6 1.1 1.1 0 0 0 .677.159 1.965 1.965 0 0 0 .513-.079 2.915 2.915 0 0 0 .414-.139zm-.11-8.91a1.48 1.48 0 0 1-1.044.4 1.5 1.5 0 0 1-1.048-.4 1.286 1.286 0 0 1-.437-.977 1.3 1.3 0 0 1 .437-.98 1.484 1.484 0 0 1 1.048-.407 1.468 1.468 0 0 1 1.044.407 1.32 1.32 0 0 1 0 1.957z"/>
</svg>
